G04 #@! TF.FileFunction,Copper,L2,Bot,Signal*
%FSLAX46Y46*%
G04 Gerber Fmt 4.6, Leading zero omitted, Abs format (unit mm)*
G04 Created by KiCad (PCBNEW 4.0.4+e1-6308~48~ubuntu16.04.1-stable) date Thu Oct 20 18:00:38 2016*
%MOMM*%
%LPD*%
G01*
G04 APERTURE LIST*
%ADD10C,0.100000*%
%ADD11R,1.300000X1.300000*%
%ADD12C,1.300000*%
%ADD13R,2.000000X1.900000*%
%ADD14C,1.900000*%
%ADD15C,1.524000*%
%ADD16C,2.700020*%
%ADD17R,1.727200X2.032000*%
%ADD18O,1.727200X2.032000*%
%ADD19O,1.600000X1.600000*%
%ADD20C,1.998980*%
%ADD21C,0.685800*%
%ADD22C,0.250000*%
%ADD23C,0.152400*%
%ADD24C,0.254000*%
G04 APERTURE END LIST*
D10*
D11*
X157480000Y-85090000D03*
D12*
X157480000Y-87590000D03*
D11*
X157480000Y-92710000D03*
D12*
X157480000Y-95210000D03*
D13*
X133350000Y-111760000D03*
D14*
X133350000Y-114300000D03*
D13*
X138430000Y-80010000D03*
D14*
X138430000Y-82550000D03*
D13*
X138430000Y-90170000D03*
D14*
X138430000Y-92710000D03*
D15*
X149860000Y-111760000D03*
X152400000Y-111760000D03*
X152400000Y-113758980D03*
X149860000Y-113758980D03*
D16*
X145130520Y-116459000D03*
X157129480Y-116459000D03*
D17*
X144780000Y-74930000D03*
D18*
X142240000Y-74930000D03*
X139700000Y-74930000D03*
X137160000Y-74930000D03*
D17*
X149860000Y-74930000D03*
D18*
X152400000Y-74930000D03*
X154940000Y-74930000D03*
X157480000Y-74930000D03*
D19*
X144780000Y-85090000D03*
X144780000Y-87630000D03*
X144780000Y-90170000D03*
X144780000Y-92710000D03*
X144780000Y-95250000D03*
X144780000Y-97790000D03*
X144780000Y-100330000D03*
X152400000Y-100330000D03*
X152400000Y-97790000D03*
X152400000Y-95250000D03*
X152400000Y-92710000D03*
X152400000Y-90170000D03*
X152400000Y-87630000D03*
X152400000Y-85090000D03*
D20*
X139700000Y-110490000D03*
X139700000Y-118110000D03*
X139700000Y-106680000D03*
X132080000Y-106680000D03*
X132080000Y-74930000D03*
X132080000Y-82550000D03*
X132080000Y-100330000D03*
X132080000Y-92710000D03*
D21*
X154940000Y-81280000D03*
X140970000Y-96520000D03*
D22*
X144780000Y-85090000D02*
X144780000Y-82550000D01*
X144780000Y-82550000D02*
X140970000Y-78740000D01*
X140970000Y-78740000D02*
X140970000Y-77470000D01*
X140970000Y-77470000D02*
X138430000Y-77470000D01*
X138430000Y-77470000D02*
X138430000Y-76200000D01*
X138430000Y-76200000D02*
X137160000Y-74930000D01*
X133350000Y-114300000D02*
X135890000Y-114300000D01*
X135890000Y-114300000D02*
X137160000Y-113030000D01*
X137160000Y-113030000D02*
X140970000Y-113030000D01*
X140970000Y-113030000D02*
X143510000Y-110490000D01*
X143510000Y-110490000D02*
X151130000Y-110490000D01*
X151130000Y-110490000D02*
X152400000Y-111760000D01*
X157480000Y-85090000D02*
X156210000Y-83820000D01*
X156210000Y-83820000D02*
X151130000Y-83820000D01*
X151130000Y-83820000D02*
X149860000Y-85090000D01*
X149860000Y-85090000D02*
X144780000Y-85090000D01*
X137160000Y-74930000D02*
X132080000Y-74930000D01*
X152400000Y-113758980D02*
X152400000Y-114300000D01*
X152400000Y-114300000D02*
X149860000Y-116840000D01*
X149860000Y-116840000D02*
X144780000Y-116840000D01*
X144780000Y-116840000D02*
X145130520Y-116459000D01*
X157480000Y-87590000D02*
X157480000Y-87630000D01*
X157480000Y-87630000D02*
X154940000Y-85090000D01*
X154940000Y-85090000D02*
X152400000Y-85090000D01*
X157129480Y-116459000D02*
X157480000Y-116840000D01*
X157480000Y-116840000D02*
X154940000Y-114300000D01*
X154940000Y-114300000D02*
X152400000Y-114300000D01*
X152400000Y-114300000D02*
X152400000Y-113758980D01*
X145130520Y-116459000D02*
X144780000Y-116840000D01*
X144780000Y-116840000D02*
X143510000Y-118110000D01*
X143510000Y-118110000D02*
X139700000Y-118110000D01*
X157480000Y-92710000D02*
X152400000Y-92710000D01*
X139700000Y-110490000D02*
X138430000Y-111760000D01*
X138430000Y-111760000D02*
X133350000Y-111760000D01*
X138430000Y-80010000D02*
X139700000Y-80010000D01*
X139700000Y-80010000D02*
X140970000Y-81280000D01*
X140970000Y-81280000D02*
X140970000Y-83820000D01*
X140970000Y-83820000D02*
X144780000Y-87630000D01*
X132080000Y-82550000D02*
X138430000Y-82550000D01*
X138430000Y-90170000D02*
X144780000Y-90170000D01*
X132080000Y-92710000D02*
X138430000Y-92710000D01*
D23*
X154940000Y-81280000D02*
X151130000Y-77470000D01*
X151130000Y-77470000D02*
X151130000Y-76200000D01*
X151130000Y-76200000D02*
X149860000Y-74930000D01*
D22*
X144780000Y-100330000D02*
X146050000Y-99060000D01*
X146050000Y-99060000D02*
X146050000Y-97790000D01*
X146050000Y-97790000D02*
X151130000Y-92710000D01*
X151130000Y-92710000D02*
X151130000Y-91440000D01*
X151130000Y-91440000D02*
X153670000Y-91440000D01*
X153670000Y-91440000D02*
X156210000Y-88900000D01*
X156210000Y-88900000D02*
X158750000Y-88900000D01*
X158750000Y-88900000D02*
X158750000Y-80010000D01*
X158750000Y-80010000D02*
X156210000Y-77470000D01*
X156210000Y-77470000D02*
X156210000Y-76200000D01*
X156210000Y-76200000D02*
X154940000Y-74930000D01*
D23*
X144780000Y-92710000D02*
X140970000Y-96520000D01*
D24*
G36*
X159893000Y-119253000D02*
X140910284Y-119253000D01*
X140966446Y-119196838D01*
X140852164Y-119082556D01*
X141118965Y-118983958D01*
X141345401Y-118374418D01*
X141326524Y-117864601D01*
X143904524Y-117864601D01*
X144045992Y-118167790D01*
X144782472Y-118452747D01*
X145571940Y-118434174D01*
X146215048Y-118167790D01*
X146356516Y-117864601D01*
X155903484Y-117864601D01*
X156044952Y-118167790D01*
X156781432Y-118452747D01*
X157570900Y-118434174D01*
X158214008Y-118167790D01*
X158355476Y-117864601D01*
X157129480Y-116638605D01*
X155903484Y-117864601D01*
X146356516Y-117864601D01*
X145130520Y-116638605D01*
X143904524Y-117864601D01*
X141326524Y-117864601D01*
X141321341Y-117724623D01*
X141118965Y-117236042D01*
X140852163Y-117137443D01*
X139879605Y-118110000D01*
X139893748Y-118124142D01*
X139714142Y-118303748D01*
X139700000Y-118289605D01*
X139685858Y-118303748D01*
X139506252Y-118124142D01*
X139520395Y-118110000D01*
X138547837Y-117137443D01*
X138281035Y-117236042D01*
X138054599Y-117845582D01*
X138078659Y-118495377D01*
X138281035Y-118983958D01*
X138547836Y-119082556D01*
X138433554Y-119196838D01*
X138489716Y-119253000D01*
X129667000Y-119253000D01*
X129667000Y-116957837D01*
X138727443Y-116957837D01*
X139700000Y-117930395D01*
X140672557Y-116957837D01*
X140573958Y-116691035D01*
X139964418Y-116464599D01*
X139314623Y-116488659D01*
X138826042Y-116691035D01*
X138727443Y-116957837D01*
X129667000Y-116957837D01*
X129667000Y-116110952D01*
X143136773Y-116110952D01*
X143155346Y-116900420D01*
X143421730Y-117543528D01*
X143724919Y-117684996D01*
X144950915Y-116459000D01*
X145310125Y-116459000D01*
X146536121Y-117684996D01*
X146839310Y-117543528D01*
X147124267Y-116807048D01*
X147107891Y-116110952D01*
X155135733Y-116110952D01*
X155154306Y-116900420D01*
X155420690Y-117543528D01*
X155723879Y-117684996D01*
X156949875Y-116459000D01*
X157309085Y-116459000D01*
X158535081Y-117684996D01*
X158838270Y-117543528D01*
X159123227Y-116807048D01*
X159104654Y-116017580D01*
X158838270Y-115374472D01*
X158535081Y-115233004D01*
X157309085Y-116459000D01*
X156949875Y-116459000D01*
X155723879Y-115233004D01*
X155420690Y-115374472D01*
X155135733Y-116110952D01*
X147107891Y-116110952D01*
X147105694Y-116017580D01*
X146839310Y-115374472D01*
X146536121Y-115233004D01*
X145310125Y-116459000D01*
X144950915Y-116459000D01*
X143724919Y-115233004D01*
X143421730Y-115374472D01*
X143136773Y-116110952D01*
X129667000Y-116110952D01*
X129667000Y-110810000D01*
X131702560Y-110810000D01*
X131702560Y-112710000D01*
X131746838Y-112945317D01*
X131885910Y-113161441D01*
X132098110Y-113306431D01*
X132101192Y-113307055D01*
X132007086Y-113400997D01*
X131765276Y-113983341D01*
X131764725Y-114613893D01*
X132005519Y-115196657D01*
X132450997Y-115642914D01*
X133033341Y-115884724D01*
X133663893Y-115885275D01*
X134246657Y-115644481D01*
X134692914Y-115199003D01*
X134750633Y-115060000D01*
X135890000Y-115060000D01*
X135923185Y-115053399D01*
X143904524Y-115053399D01*
X145130520Y-116279395D01*
X146356516Y-115053399D01*
X146215048Y-114750210D01*
X145478568Y-114465253D01*
X144689100Y-114483826D01*
X144045992Y-114750210D01*
X143904524Y-115053399D01*
X135923185Y-115053399D01*
X136180839Y-115002148D01*
X136427401Y-114837401D01*
X137474802Y-113790000D01*
X140970000Y-113790000D01*
X141260839Y-113732148D01*
X141507401Y-113567401D01*
X143824802Y-111250000D01*
X148559121Y-111250000D01*
X148463243Y-111480900D01*
X148462758Y-112036661D01*
X148674990Y-112550303D01*
X148883832Y-112759510D01*
X148676371Y-112966610D01*
X148463243Y-113479880D01*
X148462758Y-114035641D01*
X148674990Y-114549283D01*
X149067630Y-114942609D01*
X149580900Y-115155737D01*
X150136661Y-115156222D01*
X150650303Y-114943990D01*
X150855457Y-114739193D01*
X151599392Y-114739193D01*
X151668857Y-114981377D01*
X152192302Y-115168124D01*
X152747368Y-115140342D01*
X152957266Y-115053399D01*
X155903484Y-115053399D01*
X157129480Y-116279395D01*
X158355476Y-115053399D01*
X158214008Y-114750210D01*
X157477528Y-114465253D01*
X156688060Y-114483826D01*
X156044952Y-114750210D01*
X155903484Y-115053399D01*
X152957266Y-115053399D01*
X153131143Y-114981377D01*
X153200608Y-114739193D01*
X152400000Y-113938585D01*
X151599392Y-114739193D01*
X150855457Y-114739193D01*
X151043629Y-114551350D01*
X151123395Y-114359253D01*
X151177603Y-114490123D01*
X151419787Y-114559588D01*
X152220395Y-113758980D01*
X152579605Y-113758980D01*
X153380213Y-114559588D01*
X153622397Y-114490123D01*
X153809144Y-113966678D01*
X153781362Y-113411612D01*
X153622397Y-113027837D01*
X153380213Y-112958372D01*
X152579605Y-113758980D01*
X152220395Y-113758980D01*
X151419787Y-112958372D01*
X151177603Y-113027837D01*
X151127491Y-113168298D01*
X151045010Y-112968677D01*
X150836168Y-112759470D01*
X151043629Y-112552370D01*
X151129949Y-112344488D01*
X151214990Y-112550303D01*
X151607630Y-112943629D01*
X151875471Y-113054846D01*
X152400000Y-113579375D01*
X152924564Y-113054811D01*
X153190303Y-112945010D01*
X153583629Y-112552370D01*
X153796757Y-112039100D01*
X153797242Y-111483339D01*
X153585010Y-110969697D01*
X153192370Y-110576371D01*
X152679100Y-110363243D01*
X152123339Y-110362758D01*
X152090945Y-110376143D01*
X151667401Y-109952599D01*
X151420839Y-109787852D01*
X151130000Y-109730000D01*
X143510000Y-109730000D01*
X143267414Y-109778254D01*
X143219160Y-109787852D01*
X142972599Y-109952599D01*
X140655198Y-112270000D01*
X138994802Y-112270000D01*
X139208917Y-112055885D01*
X139373453Y-112124206D01*
X140023694Y-112124774D01*
X140624655Y-111876462D01*
X141084846Y-111417073D01*
X141334206Y-110816547D01*
X141334774Y-110166306D01*
X141086462Y-109565345D01*
X140627073Y-109105154D01*
X140026547Y-108855794D01*
X139376306Y-108855226D01*
X138775345Y-109103538D01*
X138315154Y-109562927D01*
X138065794Y-110163453D01*
X138065226Y-110813694D01*
X138134309Y-110980889D01*
X138115198Y-111000000D01*
X134997440Y-111000000D01*
X134997440Y-110810000D01*
X134953162Y-110574683D01*
X134814090Y-110358559D01*
X134601890Y-110213569D01*
X134350000Y-110162560D01*
X132350000Y-110162560D01*
X132114683Y-110206838D01*
X131898559Y-110345910D01*
X131753569Y-110558110D01*
X131702560Y-110810000D01*
X129667000Y-110810000D01*
X129667000Y-107003694D01*
X130445226Y-107003694D01*
X130693538Y-107604655D01*
X131152927Y-108064846D01*
X131753453Y-108314206D01*
X132403694Y-108314774D01*
X133004655Y-108066462D01*
X133464846Y-107607073D01*
X133714206Y-107006547D01*
X133714208Y-107003694D01*
X138065226Y-107003694D01*
X138313538Y-107604655D01*
X138772927Y-108064846D01*
X139373453Y-108314206D01*
X140023694Y-108314774D01*
X140624655Y-108066462D01*
X141084846Y-107607073D01*
X141334206Y-107006547D01*
X141334774Y-106356306D01*
X141086462Y-105755345D01*
X140627073Y-105295154D01*
X140026547Y-105045794D01*
X139376306Y-105045226D01*
X138775345Y-105293538D01*
X138315154Y-105752927D01*
X138065794Y-106353453D01*
X138065226Y-107003694D01*
X133714208Y-107003694D01*
X133714774Y-106356306D01*
X133466462Y-105755345D01*
X133007073Y-105295154D01*
X132406547Y-105045794D01*
X131756306Y-105045226D01*
X131155345Y-105293538D01*
X130695154Y-105752927D01*
X130445794Y-106353453D01*
X130445226Y-107003694D01*
X129667000Y-107003694D01*
X129667000Y-100653694D01*
X130445226Y-100653694D01*
X130693538Y-101254655D01*
X131152927Y-101714846D01*
X131753453Y-101964206D01*
X132403694Y-101964774D01*
X133004655Y-101716462D01*
X133464846Y-101257073D01*
X133714206Y-100656547D01*
X133714774Y-100006306D01*
X133466462Y-99405345D01*
X133007073Y-98945154D01*
X132406547Y-98695794D01*
X131756306Y-98695226D01*
X131155345Y-98943538D01*
X130695154Y-99402927D01*
X130445794Y-100003453D01*
X130445226Y-100653694D01*
X129667000Y-100653694D01*
X129667000Y-75253694D01*
X130445226Y-75253694D01*
X130693538Y-75854655D01*
X131152927Y-76314846D01*
X131753453Y-76564206D01*
X132403694Y-76564774D01*
X133004655Y-76316462D01*
X133464846Y-75857073D01*
X133534221Y-75690000D01*
X135776654Y-75690000D01*
X136100330Y-76174415D01*
X136586511Y-76499271D01*
X137160000Y-76613345D01*
X137667579Y-76512381D01*
X137670000Y-76514802D01*
X137670000Y-77470000D01*
X137727852Y-77760839D01*
X137892599Y-78007401D01*
X138139161Y-78172148D01*
X138430000Y-78230000D01*
X140210000Y-78230000D01*
X140210000Y-78740000D01*
X140267852Y-79030839D01*
X140432599Y-79277401D01*
X144020000Y-82864802D01*
X144020000Y-83886333D01*
X143737189Y-84075302D01*
X143426120Y-84540849D01*
X143316887Y-85090000D01*
X143317405Y-85092603D01*
X141730000Y-83505198D01*
X141730000Y-81280000D01*
X141672148Y-80989161D01*
X141672148Y-80989160D01*
X141507401Y-80742599D01*
X140237401Y-79472599D01*
X140077440Y-79365717D01*
X140077440Y-79060000D01*
X140033162Y-78824683D01*
X139894090Y-78608559D01*
X139681890Y-78463569D01*
X139430000Y-78412560D01*
X137430000Y-78412560D01*
X137194683Y-78456838D01*
X136978559Y-78595910D01*
X136833569Y-78808110D01*
X136782560Y-79060000D01*
X136782560Y-80960000D01*
X136826838Y-81195317D01*
X136965910Y-81411441D01*
X137178110Y-81556431D01*
X137181192Y-81557055D01*
X137087086Y-81650997D01*
X137029367Y-81790000D01*
X133534496Y-81790000D01*
X133466462Y-81625345D01*
X133007073Y-81165154D01*
X132406547Y-80915794D01*
X131756306Y-80915226D01*
X131155345Y-81163538D01*
X130695154Y-81622927D01*
X130445794Y-82223453D01*
X130445226Y-82873694D01*
X130693538Y-83474655D01*
X131152927Y-83934846D01*
X131753453Y-84184206D01*
X132403694Y-84184774D01*
X133004655Y-83936462D01*
X133464846Y-83477073D01*
X133534221Y-83310000D01*
X137029053Y-83310000D01*
X137085519Y-83446657D01*
X137530997Y-83892914D01*
X138113341Y-84134724D01*
X138743893Y-84135275D01*
X139326657Y-83894481D01*
X139772914Y-83449003D01*
X140014724Y-82866659D01*
X140015275Y-82236107D01*
X139774481Y-81653343D01*
X139676971Y-81555663D01*
X139881441Y-81424090D01*
X139945514Y-81330316D01*
X140210000Y-81594802D01*
X140210000Y-83820000D01*
X140267852Y-84110839D01*
X140432599Y-84357401D01*
X143381312Y-87306114D01*
X143316887Y-87630000D01*
X143426120Y-88179151D01*
X143737189Y-88644698D01*
X144119275Y-88900000D01*
X143737189Y-89155302D01*
X143567005Y-89410000D01*
X140077440Y-89410000D01*
X140077440Y-89220000D01*
X140033162Y-88984683D01*
X139894090Y-88768559D01*
X139681890Y-88623569D01*
X139430000Y-88572560D01*
X137430000Y-88572560D01*
X137194683Y-88616838D01*
X136978559Y-88755910D01*
X136833569Y-88968110D01*
X136782560Y-89220000D01*
X136782560Y-91120000D01*
X136826838Y-91355317D01*
X136965910Y-91571441D01*
X137178110Y-91716431D01*
X137181192Y-91717055D01*
X137087086Y-91810997D01*
X137029367Y-91950000D01*
X133534496Y-91950000D01*
X133466462Y-91785345D01*
X133007073Y-91325154D01*
X132406547Y-91075794D01*
X131756306Y-91075226D01*
X131155345Y-91323538D01*
X130695154Y-91782927D01*
X130445794Y-92383453D01*
X130445226Y-93033694D01*
X130693538Y-93634655D01*
X131152927Y-94094846D01*
X131753453Y-94344206D01*
X132403694Y-94344774D01*
X133004655Y-94096462D01*
X133464846Y-93637073D01*
X133534221Y-93470000D01*
X137029053Y-93470000D01*
X137085519Y-93606657D01*
X137530997Y-94052914D01*
X138113341Y-94294724D01*
X138743893Y-94295275D01*
X139326657Y-94054481D01*
X139772914Y-93609003D01*
X140014724Y-93026659D01*
X140015275Y-92396107D01*
X139774481Y-91813343D01*
X139676971Y-91715663D01*
X139881441Y-91584090D01*
X140026431Y-91371890D01*
X140077440Y-91120000D01*
X140077440Y-90930000D01*
X143567005Y-90930000D01*
X143737189Y-91184698D01*
X144119275Y-91440000D01*
X143737189Y-91695302D01*
X143426120Y-92160849D01*
X143316887Y-92710000D01*
X143392762Y-93091449D01*
X140942136Y-95542075D01*
X140776337Y-95541931D01*
X140416788Y-95690493D01*
X140141460Y-95965341D01*
X139992270Y-96324630D01*
X139991931Y-96713663D01*
X140140493Y-97073212D01*
X140415341Y-97348540D01*
X140774630Y-97497730D01*
X141163663Y-97498069D01*
X141523212Y-97349507D01*
X141798540Y-97074659D01*
X141947730Y-96715370D01*
X141947876Y-96547912D01*
X143334541Y-95161248D01*
X143316887Y-95250000D01*
X143426120Y-95799151D01*
X143737189Y-96264698D01*
X144119275Y-96520000D01*
X143737189Y-96775302D01*
X143426120Y-97240849D01*
X143316887Y-97790000D01*
X143426120Y-98339151D01*
X143737189Y-98804698D01*
X144119275Y-99060000D01*
X143737189Y-99315302D01*
X143426120Y-99780849D01*
X143316887Y-100330000D01*
X143426120Y-100879151D01*
X143737189Y-101344698D01*
X144202736Y-101655767D01*
X144751887Y-101765000D01*
X144808113Y-101765000D01*
X145357264Y-101655767D01*
X145822811Y-101344698D01*
X146133880Y-100879151D01*
X146243113Y-100330000D01*
X146178688Y-100006114D01*
X146587401Y-99597401D01*
X146752148Y-99350840D01*
X146810000Y-99060000D01*
X146810000Y-98104802D01*
X151290264Y-93624538D01*
X151357189Y-93724698D01*
X151739275Y-93980000D01*
X151357189Y-94235302D01*
X151046120Y-94700849D01*
X150936887Y-95250000D01*
X151046120Y-95799151D01*
X151357189Y-96264698D01*
X151739275Y-96520000D01*
X151357189Y-96775302D01*
X151046120Y-97240849D01*
X150936887Y-97790000D01*
X151046120Y-98339151D01*
X151357189Y-98804698D01*
X151739275Y-99060000D01*
X151357189Y-99315302D01*
X151046120Y-99780849D01*
X150936887Y-100330000D01*
X151046120Y-100879151D01*
X151357189Y-101344698D01*
X151822736Y-101655767D01*
X152371887Y-101765000D01*
X152428113Y-101765000D01*
X152977264Y-101655767D01*
X153442811Y-101344698D01*
X153753880Y-100879151D01*
X153863113Y-100330000D01*
X153753880Y-99780849D01*
X153442811Y-99315302D01*
X153060725Y-99060000D01*
X153442811Y-98804698D01*
X153753880Y-98339151D01*
X153863113Y-97790000D01*
X153753880Y-97240849D01*
X153442811Y-96775302D01*
X153060725Y-96520000D01*
X153442811Y-96264698D01*
X153546834Y-96109016D01*
X156760590Y-96109016D01*
X156816271Y-96339611D01*
X157299078Y-96507622D01*
X157809428Y-96478083D01*
X158143729Y-96339611D01*
X158199410Y-96109016D01*
X157480000Y-95389605D01*
X156760590Y-96109016D01*
X153546834Y-96109016D01*
X153753880Y-95799151D01*
X153863113Y-95250000D01*
X153819169Y-95029078D01*
X156182378Y-95029078D01*
X156211917Y-95539428D01*
X156350389Y-95873729D01*
X156580984Y-95929410D01*
X157300395Y-95210000D01*
X157659605Y-95210000D01*
X158379016Y-95929410D01*
X158609611Y-95873729D01*
X158777622Y-95390922D01*
X158748083Y-94880572D01*
X158609611Y-94546271D01*
X158379016Y-94490590D01*
X157659605Y-95210000D01*
X157300395Y-95210000D01*
X156580984Y-94490590D01*
X156350389Y-94546271D01*
X156182378Y-95029078D01*
X153819169Y-95029078D01*
X153753880Y-94700849D01*
X153442811Y-94235302D01*
X153060725Y-93980000D01*
X153442811Y-93724698D01*
X153612995Y-93470000D01*
X156203258Y-93470000D01*
X156226838Y-93595317D01*
X156365910Y-93811441D01*
X156578110Y-93956431D01*
X156830000Y-94007440D01*
X156992385Y-94007440D01*
X156816271Y-94080389D01*
X156760590Y-94310984D01*
X157480000Y-95030395D01*
X158199410Y-94310984D01*
X158143729Y-94080389D01*
X157934098Y-94007440D01*
X158130000Y-94007440D01*
X158365317Y-93963162D01*
X158581441Y-93824090D01*
X158726431Y-93611890D01*
X158777440Y-93360000D01*
X158777440Y-92060000D01*
X158733162Y-91824683D01*
X158594090Y-91608559D01*
X158381890Y-91463569D01*
X158130000Y-91412560D01*
X156830000Y-91412560D01*
X156594683Y-91456838D01*
X156378559Y-91595910D01*
X156233569Y-91808110D01*
X156204836Y-91950000D01*
X154234802Y-91950000D01*
X156524802Y-89660000D01*
X158750000Y-89660000D01*
X159040839Y-89602148D01*
X159287401Y-89437401D01*
X159452148Y-89190839D01*
X159510000Y-88900000D01*
X159510000Y-80010000D01*
X159452148Y-79719161D01*
X159452148Y-79719160D01*
X159287401Y-79472599D01*
X156970000Y-77155198D01*
X156970000Y-76511900D01*
X157480000Y-76613345D01*
X158053489Y-76499271D01*
X158539670Y-76174415D01*
X158864526Y-75688234D01*
X158978600Y-75114745D01*
X158978600Y-74745255D01*
X158864526Y-74171766D01*
X158539670Y-73685585D01*
X158053489Y-73360729D01*
X157480000Y-73246655D01*
X156906511Y-73360729D01*
X156420330Y-73685585D01*
X156210000Y-74000366D01*
X155999670Y-73685585D01*
X155513489Y-73360729D01*
X154940000Y-73246655D01*
X154366511Y-73360729D01*
X153880330Y-73685585D01*
X153670000Y-74000366D01*
X153459670Y-73685585D01*
X152973489Y-73360729D01*
X152400000Y-73246655D01*
X151826511Y-73360729D01*
X151340330Y-73685585D01*
X151330757Y-73699913D01*
X151326762Y-73678683D01*
X151187690Y-73462559D01*
X150975490Y-73317569D01*
X150723600Y-73266560D01*
X148996400Y-73266560D01*
X148761083Y-73310838D01*
X148544959Y-73449910D01*
X148399969Y-73662110D01*
X148348960Y-73914000D01*
X148348960Y-75946000D01*
X148393238Y-76181317D01*
X148532310Y-76397441D01*
X148744510Y-76542431D01*
X148996400Y-76593440D01*
X150418800Y-76593440D01*
X150418800Y-77470000D01*
X150472937Y-77742165D01*
X150627106Y-77972894D01*
X153962075Y-81307864D01*
X153961931Y-81473663D01*
X154110493Y-81833212D01*
X154385341Y-82108540D01*
X154744630Y-82257730D01*
X155133663Y-82258069D01*
X155493212Y-82109507D01*
X155768540Y-81834659D01*
X155917730Y-81475370D01*
X155918069Y-81086337D01*
X155769507Y-80726788D01*
X155494659Y-80451460D01*
X155135370Y-80302270D01*
X154967913Y-80302124D01*
X151841200Y-77175412D01*
X151841200Y-76502193D01*
X152400000Y-76613345D01*
X152973489Y-76499271D01*
X153459670Y-76174415D01*
X153670000Y-75859634D01*
X153880330Y-76174415D01*
X154366511Y-76499271D01*
X154940000Y-76613345D01*
X155447579Y-76512381D01*
X155450000Y-76514802D01*
X155450000Y-77470000D01*
X155507852Y-77760839D01*
X155672599Y-78007401D01*
X157990000Y-80324802D01*
X157990000Y-83792560D01*
X157257362Y-83792560D01*
X156747401Y-83282599D01*
X156500839Y-83117852D01*
X156210000Y-83060000D01*
X151130000Y-83060000D01*
X150839160Y-83117852D01*
X150592599Y-83282599D01*
X149545198Y-84330000D01*
X145992995Y-84330000D01*
X145822811Y-84075302D01*
X145540000Y-83886333D01*
X145540000Y-82550000D01*
X145482148Y-82259161D01*
X145317401Y-82012599D01*
X141730000Y-78425198D01*
X141730000Y-77470000D01*
X141672148Y-77179161D01*
X141507401Y-76932599D01*
X141260839Y-76767852D01*
X140970000Y-76710000D01*
X139190000Y-76710000D01*
X139190000Y-76511900D01*
X139700000Y-76613345D01*
X140273489Y-76499271D01*
X140759670Y-76174415D01*
X140970000Y-75859634D01*
X141180330Y-76174415D01*
X141666511Y-76499271D01*
X142240000Y-76613345D01*
X142813489Y-76499271D01*
X143299670Y-76174415D01*
X143314500Y-76152220D01*
X143378073Y-76305698D01*
X143556701Y-76484327D01*
X143790090Y-76581000D01*
X144494250Y-76581000D01*
X144653000Y-76422250D01*
X144653000Y-75057000D01*
X144907000Y-75057000D01*
X144907000Y-76422250D01*
X145065750Y-76581000D01*
X145769910Y-76581000D01*
X146003299Y-76484327D01*
X146181927Y-76305698D01*
X146278600Y-76072309D01*
X146278600Y-75215750D01*
X146119850Y-75057000D01*
X144907000Y-75057000D01*
X144653000Y-75057000D01*
X144633000Y-75057000D01*
X144633000Y-74803000D01*
X144653000Y-74803000D01*
X144653000Y-73437750D01*
X144907000Y-73437750D01*
X144907000Y-74803000D01*
X146119850Y-74803000D01*
X146278600Y-74644250D01*
X146278600Y-73787691D01*
X146181927Y-73554302D01*
X146003299Y-73375673D01*
X145769910Y-73279000D01*
X145065750Y-73279000D01*
X144907000Y-73437750D01*
X144653000Y-73437750D01*
X144494250Y-73279000D01*
X143790090Y-73279000D01*
X143556701Y-73375673D01*
X143378073Y-73554302D01*
X143314500Y-73707780D01*
X143299670Y-73685585D01*
X142813489Y-73360729D01*
X142240000Y-73246655D01*
X141666511Y-73360729D01*
X141180330Y-73685585D01*
X140970000Y-74000366D01*
X140759670Y-73685585D01*
X140273489Y-73360729D01*
X139700000Y-73246655D01*
X139126511Y-73360729D01*
X138640330Y-73685585D01*
X138430000Y-74000366D01*
X138219670Y-73685585D01*
X137733489Y-73360729D01*
X137160000Y-73246655D01*
X136586511Y-73360729D01*
X136100330Y-73685585D01*
X135776654Y-74170000D01*
X133534496Y-74170000D01*
X133466462Y-74005345D01*
X133007073Y-73545154D01*
X132406547Y-73295794D01*
X131756306Y-73295226D01*
X131155345Y-73543538D01*
X130695154Y-74002927D01*
X130445794Y-74603453D01*
X130445226Y-75253694D01*
X129667000Y-75253694D01*
X129667000Y-72517000D01*
X159893000Y-72517000D01*
X159893000Y-119253000D01*
X159893000Y-119253000D01*
G37*
X159893000Y-119253000D02*
X140910284Y-119253000D01*
X140966446Y-119196838D01*
X140852164Y-119082556D01*
X141118965Y-118983958D01*
X141345401Y-118374418D01*
X141326524Y-117864601D01*
X143904524Y-117864601D01*
X144045992Y-118167790D01*
X144782472Y-118452747D01*
X145571940Y-118434174D01*
X146215048Y-118167790D01*
X146356516Y-117864601D01*
X155903484Y-117864601D01*
X156044952Y-118167790D01*
X156781432Y-118452747D01*
X157570900Y-118434174D01*
X158214008Y-118167790D01*
X158355476Y-117864601D01*
X157129480Y-116638605D01*
X155903484Y-117864601D01*
X146356516Y-117864601D01*
X145130520Y-116638605D01*
X143904524Y-117864601D01*
X141326524Y-117864601D01*
X141321341Y-117724623D01*
X141118965Y-117236042D01*
X140852163Y-117137443D01*
X139879605Y-118110000D01*
X139893748Y-118124142D01*
X139714142Y-118303748D01*
X139700000Y-118289605D01*
X139685858Y-118303748D01*
X139506252Y-118124142D01*
X139520395Y-118110000D01*
X138547837Y-117137443D01*
X138281035Y-117236042D01*
X138054599Y-117845582D01*
X138078659Y-118495377D01*
X138281035Y-118983958D01*
X138547836Y-119082556D01*
X138433554Y-119196838D01*
X138489716Y-119253000D01*
X129667000Y-119253000D01*
X129667000Y-116957837D01*
X138727443Y-116957837D01*
X139700000Y-117930395D01*
X140672557Y-116957837D01*
X140573958Y-116691035D01*
X139964418Y-116464599D01*
X139314623Y-116488659D01*
X138826042Y-116691035D01*
X138727443Y-116957837D01*
X129667000Y-116957837D01*
X129667000Y-116110952D01*
X143136773Y-116110952D01*
X143155346Y-116900420D01*
X143421730Y-117543528D01*
X143724919Y-117684996D01*
X144950915Y-116459000D01*
X145310125Y-116459000D01*
X146536121Y-117684996D01*
X146839310Y-117543528D01*
X147124267Y-116807048D01*
X147107891Y-116110952D01*
X155135733Y-116110952D01*
X155154306Y-116900420D01*
X155420690Y-117543528D01*
X155723879Y-117684996D01*
X156949875Y-116459000D01*
X157309085Y-116459000D01*
X158535081Y-117684996D01*
X158838270Y-117543528D01*
X159123227Y-116807048D01*
X159104654Y-116017580D01*
X158838270Y-115374472D01*
X158535081Y-115233004D01*
X157309085Y-116459000D01*
X156949875Y-116459000D01*
X155723879Y-115233004D01*
X155420690Y-115374472D01*
X155135733Y-116110952D01*
X147107891Y-116110952D01*
X147105694Y-116017580D01*
X146839310Y-115374472D01*
X146536121Y-115233004D01*
X145310125Y-116459000D01*
X144950915Y-116459000D01*
X143724919Y-115233004D01*
X143421730Y-115374472D01*
X143136773Y-116110952D01*
X129667000Y-116110952D01*
X129667000Y-110810000D01*
X131702560Y-110810000D01*
X131702560Y-112710000D01*
X131746838Y-112945317D01*
X131885910Y-113161441D01*
X132098110Y-113306431D01*
X132101192Y-113307055D01*
X132007086Y-113400997D01*
X131765276Y-113983341D01*
X131764725Y-114613893D01*
X132005519Y-115196657D01*
X132450997Y-115642914D01*
X133033341Y-115884724D01*
X133663893Y-115885275D01*
X134246657Y-115644481D01*
X134692914Y-115199003D01*
X134750633Y-115060000D01*
X135890000Y-115060000D01*
X135923185Y-115053399D01*
X143904524Y-115053399D01*
X145130520Y-116279395D01*
X146356516Y-115053399D01*
X146215048Y-114750210D01*
X145478568Y-114465253D01*
X144689100Y-114483826D01*
X144045992Y-114750210D01*
X143904524Y-115053399D01*
X135923185Y-115053399D01*
X136180839Y-115002148D01*
X136427401Y-114837401D01*
X137474802Y-113790000D01*
X140970000Y-113790000D01*
X141260839Y-113732148D01*
X141507401Y-113567401D01*
X143824802Y-111250000D01*
X148559121Y-111250000D01*
X148463243Y-111480900D01*
X148462758Y-112036661D01*
X148674990Y-112550303D01*
X148883832Y-112759510D01*
X148676371Y-112966610D01*
X148463243Y-113479880D01*
X148462758Y-114035641D01*
X148674990Y-114549283D01*
X149067630Y-114942609D01*
X149580900Y-115155737D01*
X150136661Y-115156222D01*
X150650303Y-114943990D01*
X150855457Y-114739193D01*
X151599392Y-114739193D01*
X151668857Y-114981377D01*
X152192302Y-115168124D01*
X152747368Y-115140342D01*
X152957266Y-115053399D01*
X155903484Y-115053399D01*
X157129480Y-116279395D01*
X158355476Y-115053399D01*
X158214008Y-114750210D01*
X157477528Y-114465253D01*
X156688060Y-114483826D01*
X156044952Y-114750210D01*
X155903484Y-115053399D01*
X152957266Y-115053399D01*
X153131143Y-114981377D01*
X153200608Y-114739193D01*
X152400000Y-113938585D01*
X151599392Y-114739193D01*
X150855457Y-114739193D01*
X151043629Y-114551350D01*
X151123395Y-114359253D01*
X151177603Y-114490123D01*
X151419787Y-114559588D01*
X152220395Y-113758980D01*
X152579605Y-113758980D01*
X153380213Y-114559588D01*
X153622397Y-114490123D01*
X153809144Y-113966678D01*
X153781362Y-113411612D01*
X153622397Y-113027837D01*
X153380213Y-112958372D01*
X152579605Y-113758980D01*
X152220395Y-113758980D01*
X151419787Y-112958372D01*
X151177603Y-113027837D01*
X151127491Y-113168298D01*
X151045010Y-112968677D01*
X150836168Y-112759470D01*
X151043629Y-112552370D01*
X151129949Y-112344488D01*
X151214990Y-112550303D01*
X151607630Y-112943629D01*
X151875471Y-113054846D01*
X152400000Y-113579375D01*
X152924564Y-113054811D01*
X153190303Y-112945010D01*
X153583629Y-112552370D01*
X153796757Y-112039100D01*
X153797242Y-111483339D01*
X153585010Y-110969697D01*
X153192370Y-110576371D01*
X152679100Y-110363243D01*
X152123339Y-110362758D01*
X152090945Y-110376143D01*
X151667401Y-109952599D01*
X151420839Y-109787852D01*
X151130000Y-109730000D01*
X143510000Y-109730000D01*
X143267414Y-109778254D01*
X143219160Y-109787852D01*
X142972599Y-109952599D01*
X140655198Y-112270000D01*
X138994802Y-112270000D01*
X139208917Y-112055885D01*
X139373453Y-112124206D01*
X140023694Y-112124774D01*
X140624655Y-111876462D01*
X141084846Y-111417073D01*
X141334206Y-110816547D01*
X141334774Y-110166306D01*
X141086462Y-109565345D01*
X140627073Y-109105154D01*
X140026547Y-108855794D01*
X139376306Y-108855226D01*
X138775345Y-109103538D01*
X138315154Y-109562927D01*
X138065794Y-110163453D01*
X138065226Y-110813694D01*
X138134309Y-110980889D01*
X138115198Y-111000000D01*
X134997440Y-111000000D01*
X134997440Y-110810000D01*
X134953162Y-110574683D01*
X134814090Y-110358559D01*
X134601890Y-110213569D01*
X134350000Y-110162560D01*
X132350000Y-110162560D01*
X132114683Y-110206838D01*
X131898559Y-110345910D01*
X131753569Y-110558110D01*
X131702560Y-110810000D01*
X129667000Y-110810000D01*
X129667000Y-107003694D01*
X130445226Y-107003694D01*
X130693538Y-107604655D01*
X131152927Y-108064846D01*
X131753453Y-108314206D01*
X132403694Y-108314774D01*
X133004655Y-108066462D01*
X133464846Y-107607073D01*
X133714206Y-107006547D01*
X133714208Y-107003694D01*
X138065226Y-107003694D01*
X138313538Y-107604655D01*
X138772927Y-108064846D01*
X139373453Y-108314206D01*
X140023694Y-108314774D01*
X140624655Y-108066462D01*
X141084846Y-107607073D01*
X141334206Y-107006547D01*
X141334774Y-106356306D01*
X141086462Y-105755345D01*
X140627073Y-105295154D01*
X140026547Y-105045794D01*
X139376306Y-105045226D01*
X138775345Y-105293538D01*
X138315154Y-105752927D01*
X138065794Y-106353453D01*
X138065226Y-107003694D01*
X133714208Y-107003694D01*
X133714774Y-106356306D01*
X133466462Y-105755345D01*
X133007073Y-105295154D01*
X132406547Y-105045794D01*
X131756306Y-105045226D01*
X131155345Y-105293538D01*
X130695154Y-105752927D01*
X130445794Y-106353453D01*
X130445226Y-107003694D01*
X129667000Y-107003694D01*
X129667000Y-100653694D01*
X130445226Y-100653694D01*
X130693538Y-101254655D01*
X131152927Y-101714846D01*
X131753453Y-101964206D01*
X132403694Y-101964774D01*
X133004655Y-101716462D01*
X133464846Y-101257073D01*
X133714206Y-100656547D01*
X133714774Y-100006306D01*
X133466462Y-99405345D01*
X133007073Y-98945154D01*
X132406547Y-98695794D01*
X131756306Y-98695226D01*
X131155345Y-98943538D01*
X130695154Y-99402927D01*
X130445794Y-100003453D01*
X130445226Y-100653694D01*
X129667000Y-100653694D01*
X129667000Y-75253694D01*
X130445226Y-75253694D01*
X130693538Y-75854655D01*
X131152927Y-76314846D01*
X131753453Y-76564206D01*
X132403694Y-76564774D01*
X133004655Y-76316462D01*
X133464846Y-75857073D01*
X133534221Y-75690000D01*
X135776654Y-75690000D01*
X136100330Y-76174415D01*
X136586511Y-76499271D01*
X137160000Y-76613345D01*
X137667579Y-76512381D01*
X137670000Y-76514802D01*
X137670000Y-77470000D01*
X137727852Y-77760839D01*
X137892599Y-78007401D01*
X138139161Y-78172148D01*
X138430000Y-78230000D01*
X140210000Y-78230000D01*
X140210000Y-78740000D01*
X140267852Y-79030839D01*
X140432599Y-79277401D01*
X144020000Y-82864802D01*
X144020000Y-83886333D01*
X143737189Y-84075302D01*
X143426120Y-84540849D01*
X143316887Y-85090000D01*
X143317405Y-85092603D01*
X141730000Y-83505198D01*
X141730000Y-81280000D01*
X141672148Y-80989161D01*
X141672148Y-80989160D01*
X141507401Y-80742599D01*
X140237401Y-79472599D01*
X140077440Y-79365717D01*
X140077440Y-79060000D01*
X140033162Y-78824683D01*
X139894090Y-78608559D01*
X139681890Y-78463569D01*
X139430000Y-78412560D01*
X137430000Y-78412560D01*
X137194683Y-78456838D01*
X136978559Y-78595910D01*
X136833569Y-78808110D01*
X136782560Y-79060000D01*
X136782560Y-80960000D01*
X136826838Y-81195317D01*
X136965910Y-81411441D01*
X137178110Y-81556431D01*
X137181192Y-81557055D01*
X137087086Y-81650997D01*
X137029367Y-81790000D01*
X133534496Y-81790000D01*
X133466462Y-81625345D01*
X133007073Y-81165154D01*
X132406547Y-80915794D01*
X131756306Y-80915226D01*
X131155345Y-81163538D01*
X130695154Y-81622927D01*
X130445794Y-82223453D01*
X130445226Y-82873694D01*
X130693538Y-83474655D01*
X131152927Y-83934846D01*
X131753453Y-84184206D01*
X132403694Y-84184774D01*
X133004655Y-83936462D01*
X133464846Y-83477073D01*
X133534221Y-83310000D01*
X137029053Y-83310000D01*
X137085519Y-83446657D01*
X137530997Y-83892914D01*
X138113341Y-84134724D01*
X138743893Y-84135275D01*
X139326657Y-83894481D01*
X139772914Y-83449003D01*
X140014724Y-82866659D01*
X140015275Y-82236107D01*
X139774481Y-81653343D01*
X139676971Y-81555663D01*
X139881441Y-81424090D01*
X139945514Y-81330316D01*
X140210000Y-81594802D01*
X140210000Y-83820000D01*
X140267852Y-84110839D01*
X140432599Y-84357401D01*
X143381312Y-87306114D01*
X143316887Y-87630000D01*
X143426120Y-88179151D01*
X143737189Y-88644698D01*
X144119275Y-88900000D01*
X143737189Y-89155302D01*
X143567005Y-89410000D01*
X140077440Y-89410000D01*
X140077440Y-89220000D01*
X140033162Y-88984683D01*
X139894090Y-88768559D01*
X139681890Y-88623569D01*
X139430000Y-88572560D01*
X137430000Y-88572560D01*
X137194683Y-88616838D01*
X136978559Y-88755910D01*
X136833569Y-88968110D01*
X136782560Y-89220000D01*
X136782560Y-91120000D01*
X136826838Y-91355317D01*
X136965910Y-91571441D01*
X137178110Y-91716431D01*
X137181192Y-91717055D01*
X137087086Y-91810997D01*
X137029367Y-91950000D01*
X133534496Y-91950000D01*
X133466462Y-91785345D01*
X133007073Y-91325154D01*
X132406547Y-91075794D01*
X131756306Y-91075226D01*
X131155345Y-91323538D01*
X130695154Y-91782927D01*
X130445794Y-92383453D01*
X130445226Y-93033694D01*
X130693538Y-93634655D01*
X131152927Y-94094846D01*
X131753453Y-94344206D01*
X132403694Y-94344774D01*
X133004655Y-94096462D01*
X133464846Y-93637073D01*
X133534221Y-93470000D01*
X137029053Y-93470000D01*
X137085519Y-93606657D01*
X137530997Y-94052914D01*
X138113341Y-94294724D01*
X138743893Y-94295275D01*
X139326657Y-94054481D01*
X139772914Y-93609003D01*
X140014724Y-93026659D01*
X140015275Y-92396107D01*
X139774481Y-91813343D01*
X139676971Y-91715663D01*
X139881441Y-91584090D01*
X140026431Y-91371890D01*
X140077440Y-91120000D01*
X140077440Y-90930000D01*
X143567005Y-90930000D01*
X143737189Y-91184698D01*
X144119275Y-91440000D01*
X143737189Y-91695302D01*
X143426120Y-92160849D01*
X143316887Y-92710000D01*
X143392762Y-93091449D01*
X140942136Y-95542075D01*
X140776337Y-95541931D01*
X140416788Y-95690493D01*
X140141460Y-95965341D01*
X139992270Y-96324630D01*
X139991931Y-96713663D01*
X140140493Y-97073212D01*
X140415341Y-97348540D01*
X140774630Y-97497730D01*
X141163663Y-97498069D01*
X141523212Y-97349507D01*
X141798540Y-97074659D01*
X141947730Y-96715370D01*
X141947876Y-96547912D01*
X143334541Y-95161248D01*
X143316887Y-95250000D01*
X143426120Y-95799151D01*
X143737189Y-96264698D01*
X144119275Y-96520000D01*
X143737189Y-96775302D01*
X143426120Y-97240849D01*
X143316887Y-97790000D01*
X143426120Y-98339151D01*
X143737189Y-98804698D01*
X144119275Y-99060000D01*
X143737189Y-99315302D01*
X143426120Y-99780849D01*
X143316887Y-100330000D01*
X143426120Y-100879151D01*
X143737189Y-101344698D01*
X144202736Y-101655767D01*
X144751887Y-101765000D01*
X144808113Y-101765000D01*
X145357264Y-101655767D01*
X145822811Y-101344698D01*
X146133880Y-100879151D01*
X146243113Y-100330000D01*
X146178688Y-100006114D01*
X146587401Y-99597401D01*
X146752148Y-99350840D01*
X146810000Y-99060000D01*
X146810000Y-98104802D01*
X151290264Y-93624538D01*
X151357189Y-93724698D01*
X151739275Y-93980000D01*
X151357189Y-94235302D01*
X151046120Y-94700849D01*
X150936887Y-95250000D01*
X151046120Y-95799151D01*
X151357189Y-96264698D01*
X151739275Y-96520000D01*
X151357189Y-96775302D01*
X151046120Y-97240849D01*
X150936887Y-97790000D01*
X151046120Y-98339151D01*
X151357189Y-98804698D01*
X151739275Y-99060000D01*
X151357189Y-99315302D01*
X151046120Y-99780849D01*
X150936887Y-100330000D01*
X151046120Y-100879151D01*
X151357189Y-101344698D01*
X151822736Y-101655767D01*
X152371887Y-101765000D01*
X152428113Y-101765000D01*
X152977264Y-101655767D01*
X153442811Y-101344698D01*
X153753880Y-100879151D01*
X153863113Y-100330000D01*
X153753880Y-99780849D01*
X153442811Y-99315302D01*
X153060725Y-99060000D01*
X153442811Y-98804698D01*
X153753880Y-98339151D01*
X153863113Y-97790000D01*
X153753880Y-97240849D01*
X153442811Y-96775302D01*
X153060725Y-96520000D01*
X153442811Y-96264698D01*
X153546834Y-96109016D01*
X156760590Y-96109016D01*
X156816271Y-96339611D01*
X157299078Y-96507622D01*
X157809428Y-96478083D01*
X158143729Y-96339611D01*
X158199410Y-96109016D01*
X157480000Y-95389605D01*
X156760590Y-96109016D01*
X153546834Y-96109016D01*
X153753880Y-95799151D01*
X153863113Y-95250000D01*
X153819169Y-95029078D01*
X156182378Y-95029078D01*
X156211917Y-95539428D01*
X156350389Y-95873729D01*
X156580984Y-95929410D01*
X157300395Y-95210000D01*
X157659605Y-95210000D01*
X158379016Y-95929410D01*
X158609611Y-95873729D01*
X158777622Y-95390922D01*
X158748083Y-94880572D01*
X158609611Y-94546271D01*
X158379016Y-94490590D01*
X157659605Y-95210000D01*
X157300395Y-95210000D01*
X156580984Y-94490590D01*
X156350389Y-94546271D01*
X156182378Y-95029078D01*
X153819169Y-95029078D01*
X153753880Y-94700849D01*
X153442811Y-94235302D01*
X153060725Y-93980000D01*
X153442811Y-93724698D01*
X153612995Y-93470000D01*
X156203258Y-93470000D01*
X156226838Y-93595317D01*
X156365910Y-93811441D01*
X156578110Y-93956431D01*
X156830000Y-94007440D01*
X156992385Y-94007440D01*
X156816271Y-94080389D01*
X156760590Y-94310984D01*
X157480000Y-95030395D01*
X158199410Y-94310984D01*
X158143729Y-94080389D01*
X157934098Y-94007440D01*
X158130000Y-94007440D01*
X158365317Y-93963162D01*
X158581441Y-93824090D01*
X158726431Y-93611890D01*
X158777440Y-93360000D01*
X158777440Y-92060000D01*
X158733162Y-91824683D01*
X158594090Y-91608559D01*
X158381890Y-91463569D01*
X158130000Y-91412560D01*
X156830000Y-91412560D01*
X156594683Y-91456838D01*
X156378559Y-91595910D01*
X156233569Y-91808110D01*
X156204836Y-91950000D01*
X154234802Y-91950000D01*
X156524802Y-89660000D01*
X158750000Y-89660000D01*
X159040839Y-89602148D01*
X159287401Y-89437401D01*
X159452148Y-89190839D01*
X159510000Y-88900000D01*
X159510000Y-80010000D01*
X159452148Y-79719161D01*
X159452148Y-79719160D01*
X159287401Y-79472599D01*
X156970000Y-77155198D01*
X156970000Y-76511900D01*
X157480000Y-76613345D01*
X158053489Y-76499271D01*
X158539670Y-76174415D01*
X158864526Y-75688234D01*
X158978600Y-75114745D01*
X158978600Y-74745255D01*
X158864526Y-74171766D01*
X158539670Y-73685585D01*
X158053489Y-73360729D01*
X157480000Y-73246655D01*
X156906511Y-73360729D01*
X156420330Y-73685585D01*
X156210000Y-74000366D01*
X155999670Y-73685585D01*
X155513489Y-73360729D01*
X154940000Y-73246655D01*
X154366511Y-73360729D01*
X153880330Y-73685585D01*
X153670000Y-74000366D01*
X153459670Y-73685585D01*
X152973489Y-73360729D01*
X152400000Y-73246655D01*
X151826511Y-73360729D01*
X151340330Y-73685585D01*
X151330757Y-73699913D01*
X151326762Y-73678683D01*
X151187690Y-73462559D01*
X150975490Y-73317569D01*
X150723600Y-73266560D01*
X148996400Y-73266560D01*
X148761083Y-73310838D01*
X148544959Y-73449910D01*
X148399969Y-73662110D01*
X148348960Y-73914000D01*
X148348960Y-75946000D01*
X148393238Y-76181317D01*
X148532310Y-76397441D01*
X148744510Y-76542431D01*
X148996400Y-76593440D01*
X150418800Y-76593440D01*
X150418800Y-77470000D01*
X150472937Y-77742165D01*
X150627106Y-77972894D01*
X153962075Y-81307864D01*
X153961931Y-81473663D01*
X154110493Y-81833212D01*
X154385341Y-82108540D01*
X154744630Y-82257730D01*
X155133663Y-82258069D01*
X155493212Y-82109507D01*
X155768540Y-81834659D01*
X155917730Y-81475370D01*
X155918069Y-81086337D01*
X155769507Y-80726788D01*
X155494659Y-80451460D01*
X155135370Y-80302270D01*
X154967913Y-80302124D01*
X151841200Y-77175412D01*
X151841200Y-76502193D01*
X152400000Y-76613345D01*
X152973489Y-76499271D01*
X153459670Y-76174415D01*
X153670000Y-75859634D01*
X153880330Y-76174415D01*
X154366511Y-76499271D01*
X154940000Y-76613345D01*
X155447579Y-76512381D01*
X155450000Y-76514802D01*
X155450000Y-77470000D01*
X155507852Y-77760839D01*
X155672599Y-78007401D01*
X157990000Y-80324802D01*
X157990000Y-83792560D01*
X157257362Y-83792560D01*
X156747401Y-83282599D01*
X156500839Y-83117852D01*
X156210000Y-83060000D01*
X151130000Y-83060000D01*
X150839160Y-83117852D01*
X150592599Y-83282599D01*
X149545198Y-84330000D01*
X145992995Y-84330000D01*
X145822811Y-84075302D01*
X145540000Y-83886333D01*
X145540000Y-82550000D01*
X145482148Y-82259161D01*
X145317401Y-82012599D01*
X141730000Y-78425198D01*
X141730000Y-77470000D01*
X141672148Y-77179161D01*
X141507401Y-76932599D01*
X141260839Y-76767852D01*
X140970000Y-76710000D01*
X139190000Y-76710000D01*
X139190000Y-76511900D01*
X139700000Y-76613345D01*
X140273489Y-76499271D01*
X140759670Y-76174415D01*
X140970000Y-75859634D01*
X141180330Y-76174415D01*
X141666511Y-76499271D01*
X142240000Y-76613345D01*
X142813489Y-76499271D01*
X143299670Y-76174415D01*
X143314500Y-76152220D01*
X143378073Y-76305698D01*
X143556701Y-76484327D01*
X143790090Y-76581000D01*
X144494250Y-76581000D01*
X144653000Y-76422250D01*
X144653000Y-75057000D01*
X144907000Y-75057000D01*
X144907000Y-76422250D01*
X145065750Y-76581000D01*
X145769910Y-76581000D01*
X146003299Y-76484327D01*
X146181927Y-76305698D01*
X146278600Y-76072309D01*
X146278600Y-75215750D01*
X146119850Y-75057000D01*
X144907000Y-75057000D01*
X144653000Y-75057000D01*
X144633000Y-75057000D01*
X144633000Y-74803000D01*
X144653000Y-74803000D01*
X144653000Y-73437750D01*
X144907000Y-73437750D01*
X144907000Y-74803000D01*
X146119850Y-74803000D01*
X146278600Y-74644250D01*
X146278600Y-73787691D01*
X146181927Y-73554302D01*
X146003299Y-73375673D01*
X145769910Y-73279000D01*
X145065750Y-73279000D01*
X144907000Y-73437750D01*
X144653000Y-73437750D01*
X144494250Y-73279000D01*
X143790090Y-73279000D01*
X143556701Y-73375673D01*
X143378073Y-73554302D01*
X143314500Y-73707780D01*
X143299670Y-73685585D01*
X142813489Y-73360729D01*
X142240000Y-73246655D01*
X141666511Y-73360729D01*
X141180330Y-73685585D01*
X140970000Y-74000366D01*
X140759670Y-73685585D01*
X140273489Y-73360729D01*
X139700000Y-73246655D01*
X139126511Y-73360729D01*
X138640330Y-73685585D01*
X138430000Y-74000366D01*
X138219670Y-73685585D01*
X137733489Y-73360729D01*
X137160000Y-73246655D01*
X136586511Y-73360729D01*
X136100330Y-73685585D01*
X135776654Y-74170000D01*
X133534496Y-74170000D01*
X133466462Y-74005345D01*
X133007073Y-73545154D01*
X132406547Y-73295794D01*
X131756306Y-73295226D01*
X131155345Y-73543538D01*
X130695154Y-74002927D01*
X130445794Y-74603453D01*
X130445226Y-75253694D01*
X129667000Y-75253694D01*
X129667000Y-72517000D01*
X159893000Y-72517000D01*
X159893000Y-119253000D01*
G36*
X156182560Y-84867362D02*
X156182560Y-85740000D01*
X156226838Y-85975317D01*
X156365910Y-86191441D01*
X156578110Y-86336431D01*
X156830000Y-86387440D01*
X156992385Y-86387440D01*
X156816271Y-86460389D01*
X156760590Y-86690984D01*
X157480000Y-87410395D01*
X157494142Y-87396252D01*
X157673748Y-87575858D01*
X157659605Y-87590000D01*
X157673748Y-87604143D01*
X157494142Y-87783748D01*
X157480000Y-87769605D01*
X157465858Y-87783748D01*
X157286252Y-87604142D01*
X157300395Y-87590000D01*
X156580984Y-86870590D01*
X156350389Y-86926271D01*
X156182378Y-87409078D01*
X156211917Y-87919428D01*
X156303281Y-88140000D01*
X156210000Y-88140000D01*
X155967414Y-88188254D01*
X155919160Y-88197852D01*
X155672599Y-88362599D01*
X153862595Y-90172603D01*
X153863113Y-90170000D01*
X153753880Y-89620849D01*
X153442811Y-89155302D01*
X153060725Y-88900000D01*
X153442811Y-88644698D01*
X153753880Y-88179151D01*
X153863113Y-87630000D01*
X153753880Y-87080849D01*
X153442811Y-86615302D01*
X153038297Y-86345014D01*
X153255134Y-86242389D01*
X153631041Y-85827423D01*
X153791904Y-85439039D01*
X153669915Y-85217000D01*
X152527000Y-85217000D01*
X152527000Y-85237000D01*
X152273000Y-85237000D01*
X152273000Y-85217000D01*
X151130085Y-85217000D01*
X151008096Y-85439039D01*
X151168959Y-85827423D01*
X151544866Y-86242389D01*
X151761703Y-86345014D01*
X151357189Y-86615302D01*
X151046120Y-87080849D01*
X150936887Y-87630000D01*
X151046120Y-88179151D01*
X151357189Y-88644698D01*
X151739275Y-88900000D01*
X151357189Y-89155302D01*
X151046120Y-89620849D01*
X150936887Y-90170000D01*
X151041821Y-90697540D01*
X150839161Y-90737852D01*
X150592599Y-90902599D01*
X150427852Y-91149161D01*
X150370000Y-91440000D01*
X150370000Y-92395198D01*
X145889736Y-96875462D01*
X145822811Y-96775302D01*
X145440725Y-96520000D01*
X145822811Y-96264698D01*
X146133880Y-95799151D01*
X146243113Y-95250000D01*
X146133880Y-94700849D01*
X145822811Y-94235302D01*
X145440725Y-93980000D01*
X145822811Y-93724698D01*
X146133880Y-93259151D01*
X146243113Y-92710000D01*
X146133880Y-92160849D01*
X145822811Y-91695302D01*
X145440725Y-91440000D01*
X145822811Y-91184698D01*
X146133880Y-90719151D01*
X146243113Y-90170000D01*
X146133880Y-89620849D01*
X145822811Y-89155302D01*
X145440725Y-88900000D01*
X145822811Y-88644698D01*
X146133880Y-88179151D01*
X146243113Y-87630000D01*
X146133880Y-87080849D01*
X145822811Y-86615302D01*
X145440725Y-86360000D01*
X145822811Y-86104698D01*
X145992995Y-85850000D01*
X149860000Y-85850000D01*
X150150839Y-85792148D01*
X150397401Y-85627401D01*
X151105873Y-84918929D01*
X151130085Y-84963000D01*
X152273000Y-84963000D01*
X152273000Y-84943000D01*
X152527000Y-84943000D01*
X152527000Y-84963000D01*
X153669915Y-84963000D01*
X153791904Y-84740961D01*
X153725236Y-84580000D01*
X155895198Y-84580000D01*
X156182560Y-84867362D01*
X156182560Y-84867362D01*
G37*
X156182560Y-84867362D02*
X156182560Y-85740000D01*
X156226838Y-85975317D01*
X156365910Y-86191441D01*
X156578110Y-86336431D01*
X156830000Y-86387440D01*
X156992385Y-86387440D01*
X156816271Y-86460389D01*
X156760590Y-86690984D01*
X157480000Y-87410395D01*
X157494142Y-87396252D01*
X157673748Y-87575858D01*
X157659605Y-87590000D01*
X157673748Y-87604143D01*
X157494142Y-87783748D01*
X157480000Y-87769605D01*
X157465858Y-87783748D01*
X157286252Y-87604142D01*
X157300395Y-87590000D01*
X156580984Y-86870590D01*
X156350389Y-86926271D01*
X156182378Y-87409078D01*
X156211917Y-87919428D01*
X156303281Y-88140000D01*
X156210000Y-88140000D01*
X155967414Y-88188254D01*
X155919160Y-88197852D01*
X155672599Y-88362599D01*
X153862595Y-90172603D01*
X153863113Y-90170000D01*
X153753880Y-89620849D01*
X153442811Y-89155302D01*
X153060725Y-88900000D01*
X153442811Y-88644698D01*
X153753880Y-88179151D01*
X153863113Y-87630000D01*
X153753880Y-87080849D01*
X153442811Y-86615302D01*
X153038297Y-86345014D01*
X153255134Y-86242389D01*
X153631041Y-85827423D01*
X153791904Y-85439039D01*
X153669915Y-85217000D01*
X152527000Y-85217000D01*
X152527000Y-85237000D01*
X152273000Y-85237000D01*
X152273000Y-85217000D01*
X151130085Y-85217000D01*
X151008096Y-85439039D01*
X151168959Y-85827423D01*
X151544866Y-86242389D01*
X151761703Y-86345014D01*
X151357189Y-86615302D01*
X151046120Y-87080849D01*
X150936887Y-87630000D01*
X151046120Y-88179151D01*
X151357189Y-88644698D01*
X151739275Y-88900000D01*
X151357189Y-89155302D01*
X151046120Y-89620849D01*
X150936887Y-90170000D01*
X151041821Y-90697540D01*
X150839161Y-90737852D01*
X150592599Y-90902599D01*
X150427852Y-91149161D01*
X150370000Y-91440000D01*
X150370000Y-92395198D01*
X145889736Y-96875462D01*
X145822811Y-96775302D01*
X145440725Y-96520000D01*
X145822811Y-96264698D01*
X146133880Y-95799151D01*
X146243113Y-95250000D01*
X146133880Y-94700849D01*
X145822811Y-94235302D01*
X145440725Y-93980000D01*
X145822811Y-93724698D01*
X146133880Y-93259151D01*
X146243113Y-92710000D01*
X146133880Y-92160849D01*
X145822811Y-91695302D01*
X145440725Y-91440000D01*
X145822811Y-91184698D01*
X146133880Y-90719151D01*
X146243113Y-90170000D01*
X146133880Y-89620849D01*
X145822811Y-89155302D01*
X145440725Y-88900000D01*
X145822811Y-88644698D01*
X146133880Y-88179151D01*
X146243113Y-87630000D01*
X146133880Y-87080849D01*
X145822811Y-86615302D01*
X145440725Y-86360000D01*
X145822811Y-86104698D01*
X145992995Y-85850000D01*
X149860000Y-85850000D01*
X150150839Y-85792148D01*
X150397401Y-85627401D01*
X151105873Y-84918929D01*
X151130085Y-84963000D01*
X152273000Y-84963000D01*
X152273000Y-84943000D01*
X152527000Y-84943000D01*
X152527000Y-84963000D01*
X153669915Y-84963000D01*
X153791904Y-84740961D01*
X153725236Y-84580000D01*
X155895198Y-84580000D01*
X156182560Y-84867362D01*
M02*
