M48
;DRILL file {KiCad 4.0.4+e1-6308~48~ubuntu16.04.1-stable} date Thu Oct 20 18:00:50 2016
;FORMAT={-:-/ absolute / inch / decimal}
FMAT,2
INCH,TZ
T1C0.013
T2C0.031
T3C0.032
T4C0.032
T5C0.039
T6C0.040
T7C0.091
%
G90
G05
M72
T1
X5.55Y-3.8
X6.1Y-3.2
T2
X5.7Y-3.35
X5.7Y-3.45
X5.7Y-3.55
X5.7Y-3.65
X5.7Y-3.75
X5.7Y-3.85
X5.7Y-3.95
X6.Y-3.35
X6.Y-3.45
X6.Y-3.55
X6.Y-3.65
X6.Y-3.75
X6.Y-3.85
X6.Y-3.95
X6.2Y-3.35
X6.2Y-3.65
T3
X6.2Y-3.4484
X6.2Y-3.7484
T4
X5.9Y-4.4
X5.9Y-4.4787
X6.Y-4.4
X6.Y-4.4787
T5
X5.2Y-2.95
X5.2Y-3.25
X5.2Y-3.65
X5.2Y-3.95
X5.2Y-4.2
X5.25Y-4.4
X5.25Y-4.5
X5.45Y-3.15
X5.45Y-3.25
X5.45Y-3.55
X5.45Y-3.65
X5.5Y-4.2
X5.5Y-4.35
X5.5Y-4.65
T6
X5.4Y-2.95
X5.5Y-2.95
X5.6Y-2.95
X5.7Y-2.95
X5.9Y-2.95
X6.Y-2.95
X6.1Y-2.95
X6.2Y-2.95
T7
X5.7138Y-4.585
X6.1862Y-4.585
T0
M30
