G04 #@! TF.FileFunction,Soldermask,Top*
%FSLAX46Y46*%
G04 Gerber Fmt 4.6, Leading zero omitted, Abs format (unit mm)*
G04 Created by KiCad (PCBNEW 4.0.4+e1-6308~48~ubuntu16.04.1-stable) date Thu Oct 20 18:00:38 2016*
%MOMM*%
%LPD*%
G01*
G04 APERTURE LIST*
%ADD10C,0.100000*%
%ADD11R,1.700000X1.700000*%
%ADD12C,1.700000*%
%ADD13R,2.400000X2.300000*%
%ADD14C,2.300000*%
%ADD15C,1.924000*%
%ADD16C,3.100020*%
%ADD17R,2.127200X2.432000*%
%ADD18O,2.127200X2.432000*%
%ADD19O,2.000000X2.000000*%
%ADD20C,2.398980*%
G04 APERTURE END LIST*
D10*
D11*
X157480000Y-85090000D03*
D12*
X157480000Y-87590000D03*
D11*
X157480000Y-92710000D03*
D12*
X157480000Y-95210000D03*
D13*
X133350000Y-111760000D03*
D14*
X133350000Y-114300000D03*
D13*
X138430000Y-80010000D03*
D14*
X138430000Y-82550000D03*
D13*
X138430000Y-90170000D03*
D14*
X138430000Y-92710000D03*
D15*
X149860000Y-111760000D03*
X152400000Y-111760000D03*
X152400000Y-113758980D03*
X149860000Y-113758980D03*
D16*
X145130520Y-116459000D03*
X157129480Y-116459000D03*
D17*
X144780000Y-74930000D03*
D18*
X142240000Y-74930000D03*
X139700000Y-74930000D03*
X137160000Y-74930000D03*
D17*
X149860000Y-74930000D03*
D18*
X152400000Y-74930000D03*
X154940000Y-74930000D03*
X157480000Y-74930000D03*
D19*
X144780000Y-85090000D03*
X144780000Y-87630000D03*
X144780000Y-90170000D03*
X144780000Y-92710000D03*
X144780000Y-95250000D03*
X144780000Y-97790000D03*
X144780000Y-100330000D03*
X152400000Y-100330000D03*
X152400000Y-97790000D03*
X152400000Y-95250000D03*
X152400000Y-92710000D03*
X152400000Y-90170000D03*
X152400000Y-87630000D03*
X152400000Y-85090000D03*
D20*
X139700000Y-110490000D03*
X139700000Y-118110000D03*
X139700000Y-106680000D03*
X132080000Y-106680000D03*
X132080000Y-74930000D03*
X132080000Y-82550000D03*
X132080000Y-100330000D03*
X132080000Y-92710000D03*
M02*
